<svg id="Capa_1" enable-background="new 0 0 425.591 425.591" height="512" viewBox="0 0 425.591 425.591" width="512" xmlns="http://www.w3.org/2000/svg"><path d="m143.61 125.058c-2.114-2.551-5.897-2.905-8.448-.791l-48.956 40.576c-2.551 2.115-2.905 5.897-.791 8.448.238.288.503.552.791.791l48.956 40.577c2.552 2.115 6.334 1.761 8.449-.791s1.761-6.334-.791-8.449l-43.383-35.956 43.383-35.957c2.55-2.115 2.904-5.897.79-8.448z"/><path d="m253.517 164.843-48.956-40.576c-2.551-2.115-6.334-1.761-8.449.79s-1.761 6.334.79 8.449l43.383 35.957-43.383 35.956c-2.552 2.115-2.906 5.897-.791 8.449s5.897 2.906 8.449.791l48.956-40.577c2.551-2.115 2.905-5.897.791-8.448-.238-.288-.503-.553-.79-.791z"/><path d="m179.867 103.344c-3.275-.492-6.331 1.761-6.83 5.035l-18.318 121.026c-.497 3.276 1.756 6.335 5.033 6.832 3.276.497 6.335-1.756 6.832-5.033l18.318-121.026c.498-3.276-1.753-6.336-5.029-6.834-.003.001-.004 0-.006 0z"/><path d="m169.769 41.756c-70.565 0-127.975 57.384-127.975 127.919s57.41 127.915 127.975 127.915 127.975-57.38 127.975-127.915-57.41-127.919-127.975-127.919zm0 243.838c-64.02-.031-115.894-51.955-115.863-115.975s51.954-115.894 115.975-115.863c63.998.031 115.863 51.921 115.863 115.919-.09 64.004-51.971 115.858-115.975 115.915z"/><path d="m331.958 283.104c-2.343-2.342-6.141-2.342-8.484 0l-3.53 3.529-14.764-14.756c22.314-29.395 34.377-65.295 34.34-102.2 0-93.56-76.15-169.677-169.751-169.677s-169.75 76.115-169.75 169.675 76.149 169.676 169.75 169.676c36.92.039 72.836-12.02 102.253-34.33l14.765 14.755-3.717 3.714c-2.344 2.343-2.344 6.142-.002 8.485l.002.002 83.559 83.522c13.491 13.466 35.341 13.455 48.818-.025.448-.441.884-.895 1.309-1.362 12.231-13.676 11.672-34.518-1.275-47.519zm-319.939-113.429c0-86.943 70.767-157.677 157.75-157.677s157.751 70.734 157.751 157.677-70.767 157.676-157.751 157.676-157.75-70.733-157.75-157.676zm269.361 127.732c5.749-5.025 11.155-10.429 16.183-16.176l13.894 13.885-16.183 16.174zm126.493 108.638c-.273.3-.554.593-.868.9-8.814 8.807-23.093 8.822-31.925.033l-79.281-79.245 31.917-31.9 79.318 79.287c8.432 8.457 8.8 22.024.839 30.925z"/></svg>