<?xml version="1.0" encoding="iso-8859-1"?>
<!-- Generator: Adobe Illustrator 19.0.0, SVG Export Plug-In . SVG Version: 6.00 Build 0)  -->
<svg version="1.1" id="Capa_1" xmlns="http://www.w3.org/2000/svg" xmlns:xlink="http://www.w3.org/1999/xlink" x="0px" y="0px"
	 viewBox="0 0 56 56" style="enable-background:new 0 0 56 56;" xml:space="preserve">
<g>
	<path d="M37.448,42.534C39.039,40.626,40,38.174,40,35.5c0-6.065-4.935-11-11-11s-11,4.935-11,11s4.935,11,11,11
		c2.673,0,5.125-0.96,7.034-2.552l9.259,9.259C45.488,53.402,45.744,53.5,46,53.5s0.512-0.098,0.707-0.293
		c0.391-0.391,0.391-1.023,0-1.414L37.448,42.534z M20,35.5c0-4.963,4.038-9,9-9s9,4.037,9,9s-4.038,9-9,9S20,40.463,20,35.5z"/>
	<path d="M47.835,18.486c-0.137-0.019-2.457-0.335-4.684,0.002C43.1,18.496,43.049,18.5,42.999,18.5
		c-0.486,0-0.912-0.354-0.987-0.85c-0.083-0.546,0.292-1.056,0.838-1.139c1.531-0.233,3.062-0.196,4.083-0.124
		C46.262,8.635,39.83,2.5,32.085,2.5c-4.697,0-9.418,2.379-12.285,6.129c1.954,1.652,3.2,4.117,3.2,6.871c0,0.553-0.447,1-1,1
		s-1-0.447-1-1c0-2.462-1.281-4.627-3.209-5.876c-0.227-0.147-0.462-0.277-0.702-0.396c-0.069-0.034-0.139-0.069-0.21-0.101
		c-0.272-0.124-0.55-0.234-0.835-0.321c-0.035-0.01-0.071-0.017-0.106-0.027c-0.259-0.075-0.522-0.132-0.789-0.177
		c-0.078-0.013-0.155-0.025-0.233-0.036C14.614,8.527,14.309,8.5,14,8.5c-3.859,0-7,3.141-7,7c0,0.082,0.006,0.163,0.012,0.244
		l0.012,0.21l-0.009,0.16C7.008,16.244,7,16.373,7,16.5v0.63l-0.567,0.271C2.705,19.188,0,23.5,0,27.654
		C0,33.635,4.865,38.5,10.845,38.5h5.519C16.134,37.535,16,36.534,16,35.5c0-7.168,5.832-13,13-13s13,5.832,13,13
		c0,1.034-0.134,2.035-0.363,3h4.335C51.501,38.5,56,34.001,56,28.472C56,23.661,52.49,19.372,47.835,18.486z"/>
</g>
<g>
</g>
<g>
</g>
<g>
</g>
<g>
</g>
<g>
</g>
<g>
</g>
<g>
</g>
<g>
</g>
<g>
</g>
<g>
</g>
<g>
</g>
<g>
</g>
<g>
</g>
<g>
</g>
<g>
</g>
</svg>
