<svg xmlns="http://www.w3.org/2000/svg" width="24" height="24" viewBox="0 0 24 24">
    <path fill="none" d="M 0 0 h 24 v 24 H 0 V 0 z"/>
    <path fill="rgb(255, 255, 255)" d="M 17.3 6.3 c -0.4 -0.4 -1 -0.4 -1.4 0 l -5.6 5.6 l 1.4 1.4 L 17.3 7.7 c 0.4 -0.4 0.4 -1 0 -1.4 z m 4.2 0 l -9.9 9.9 l -3.5 -3.5 c -0.4 -0.4 -1 -0.4 -1.4 0 c -0.4 0.4 -0.4 1 0 1.4 l 4.2 4.2 c 0.4 0.4 1 0.4 1.4 0 L 22.9 7.7 c 0.4 -0.4 0.4 -1 0 -1.4 h 0 c -0.4 -0.4 -1 -0.4 -1.4 0 z M 1.1 14.1 L 5.3 18.3 c 0.4 0.4 1 0.4 1.4 0 l 0.7 -0.7 l -4.9 -4.9 c -0.4 -0.4 -1 -0.4 -1.4 0 c -0.4 0.4 -0.4 1 0 1.4 z"/>
</svg>