<svg xmlns="http://www.w3.org/2000/svg" width="24" height="24" viewBox="0 0 24 24">
    <path fill="rgb(255, 255, 255)" d="M 3 6 c -0.6 0 -1 0.5 -1 1 v 13 c 0 1.1 0.9 2 2 2 h 13 c 0.6 0 1 -0.5 1 -1 s -0.5 -1 -1 -1 H 5 c -0.6 0 -1 -0.5 -1 -1 V 7 c 0 -0.6 -0.5 -1 -1 -1 z m 17 -4 H 8 c -1.1 0 -2 0.9 -2 2 v 12 c 0 1.1 0.9 2 2 2 h 12 c 1.1 0 2 -0.9 2 -2 V 4 c 0 -1.1 -0.9 -2 -2 -2 z m -2 9 h -3 v 3 c 0 0.6 -0.5 1 -1 1 s -1 -0.5 -1 -1 v -3 h -3 c -0.6 0 -1 -0.5 -1 -1 s 0.5 -1 1 -1 h 3 V 6 c 0 -0.6 0.5 -1 1 -1 s 1 0.5 1 1 v 3 h 3 c 0.6 0 1 0.5 1 1 s -0.5 1 -1 1 z"/>
</svg>