<svg xmlns="http://www.w3.org/2000/svg" width="16" height="16" viewBox="0 0 24 24">
    <path fill="none" d="M 0 0 h 24 v 24 H 0 V 0 z"/>
    <path fill="rgb(255, 255, 255)" d="M 19 4 H 5 c -1.1 0 -2 0.9 -2 2 v 12 c 0 1.1 0.9 2 2 2 h 3 c 0.6 0 1 -0.5 1 -1 s -0.5 -1 -1 -1 H 5 V 8 h 14 v 10 h -3 c -0.6 0 -1 0.5 -1 1 s 0.5 1 1 1 h 3 c 1.1 0 2 -0.9 2 -2 V 6 c 0 -1.1 -0.9 -2 -2 -2 z m -7.3 6.3 l -2.8 2.8 c -0.3 0.3 -0.1 0.9 0.3 0.9 H 11 v 5 c 0 0.6 0.5 1 1 1 s 1 -0.5 1 -1 v -5 h 1.8 c 0.5 0 0.7 -0.5 0.3 -0.8 l -2.8 -2.8 c -0.2 -0.2 -0.5 -0.2 -0.7 0 z"/>
</svg>